<svg xmlns="http://www.w3.org/2000/svg" viewBox="0 0 1266 308.89"><defs><style>.cls-1{fill:#3b3a40;}.cls-2{font-size:165.89px;font-family:JacquesFrancois-Regular, Jacques Francois;}.cls-2,.cls-3{fill:rgb(249,212,35);}</style></defs><title>gringotts-brand</title><g id="Layer_2" data-name="Layer 2"><g id="Layer_1-2" data-name="Layer 1"><rect class="cls-1" width="1266" height="308.89"/><text class="cls-2" transform="translate(689.29 201.91) scale(1.02 1)">OTTS</text><text class="cls-2" transform="translate(56.92 203.45) scale(1.02 1)">GRIN</text><path class="cls-3" d="M640.6,203.21,674,199.36s-6.46-1.92-8-4.37a37.71,37.71,0,0,1-6.29-19c-.7-10.48-1.22-13.1-1.22-13.1a28,28,0,0,0,7.68-5.41c3.67-3.67,4.37-11,4.37-11s-12.4,2.1-12.57.35,8.59-.76,8.79-1.37-.06-1.48-.9-2.56-3.17-3.9-2.94-5.09,11.24-3.43,14.15-4,16.82-3.41,18.63-3.06c0,0,.81-2-2.24-4.95s-10.19-6.84-15.66-7.51-9-.47-10.25-1.46-37.4-50.65-37.4-50.65l1.46,13.62s-8.5-2.79-12.81-3a151.55,151.55,0,0,0-19.62.7c-5,.7-14.73,4-19.21,6.17a69.9,69.9,0,0,0-13.62,8.56,78.87,78.87,0,0,0-11.06,11.53c-3.61,4.83-8.09,12.75-9.66,19.85a101.19,101.19,0,0,0-2.5,18.69,62.69,62.69,0,0,0,2.79,20c1.46,4.13,3.61,10.42,7.22,16s7,10.3,10.25,13.16,9,8,15.25,10.3,12.75,4.89,21.71,5,13.85.41,19.27-.7,13.62-3.67,19.62-8.73,9.08-11.88,9.55-12.57.87-1,1.63-.76.93,3.26.93,5.41.12,4.89-2.79,8.09A33.07,33.07,0,0,1,640.6,203.21Z"/><path class="cls-1" d="M632.68,171.77a9.34,9.34,0,0,1-2.33-6.17,8.23,8.23,0,0,1,2.82-5.27,8.41,8.41,0,0,1,5.76-1.66c2.36.17,5.33.7,7.33,3.06s2,5.06,2.18,8a18,18,0,0,1-2.79,10.39c-2.1,3-4.45,6.46-9.17,9.17s-8.3,5.24-15,5.94-13.88-.09-16.42-1-9.52-3.58-12.05-5.33-2.44-2.1-2.44-2.1a30,30,0,0,0,6.55-3.73c4.28-3,7.33-5.7,8.62-7.57l1.6-2.59s-14.41-1.66-18.25-2.79-15.63-4.89-19.21-7.6a57.45,57.45,0,0,1-10.39-10.22c-2.88-3.75-5.94-12-6.72-16.42s-.18-10.66,0-12.23c0-.14,0-3.51,0-3.51-2.34-.34-6.7-1-10.31-1.76a23.88,23.88,0,0,1-4.85-1.41c-.94-.45-.94-.68-.94-.68s2-.72,3-1c1.31-.35,1.93-.51,3.85-1,2.17-.54,4.38-.91,5.63-1.1a22.54,22.54,0,0,0,5.47-1.93,30.69,30.69,0,0,0,3.44-1.83c2.62-3.67,7.79-10.24,12.24-13.12s10.65-6.72,15.46-8,12.31-3.49,17-3.49,14.32-1.22,21.13.61,15.37,7,17.81,9.69,3.75,3.84,5.24,7.42,4.89,13.71,5.85,14.32,7.25,1,14.93,1.83,11.44,1.4,15.37,2.88,10.39,5.24,10.83,7.07c0,0-19.65,2.62-24.8,4.1s-7.6,2.36-7.86,3.49,1.48,5.24,2.71,6.9c0,0-11.35,2.53-11.35,3.23s2.1,2.79,7.68,3.14,5.85-.09,5.85-.09.87,2.27-4.63,3.84-13.62-1.14-13.62-1.14-6.9-3.58-12.31-4-10,.09-13.45,3.93-2.79,7.51-2.53,10.39a15.71,15.71,0,0,0,3.84,9.08c2.62,3.06,3.49,3.23,7,3.93,0,0,4.34.41,6.55-.23Z"/><path class="cls-3" d="M597.7,119.67a24.48,24.48,0,0,0-12.75-7c-7.92-1.51-21-1.16-24.8-.76-4.83.52-14.38,1.22-23.58,4.42,0,0,.29,1.4,11.24,3.09s17.17,2.56,19.62,4.37,6.64,5.65,9,13.68,8,13.39,15.08,14.55,13.1,1.51,16.59-2.44c0,0,1.34,7-8.21,8.91s-14.64-.41-17-2.39c-9.84-8.27-6-16.51-14.73-26.55-4.54-5.24-15.14-5.57-20.61-6.75-5.94-1.28-15.43-4.66-17.7-5.94a125.45,125.45,0,0,1,15-5.41c4.31-1.11,16.87-2.84,29.69-2.1,5,.29,14.2,1.86,18.1,4.25A12.2,12.2,0,0,1,597.7,119.67Z"/><path class="cls-3" d="M622.61,127.37a5.7,5.7,0,0,1-.17-3,5.91,5.91,0,0,1,4.37-3.62,8.15,8.15,0,0,1,5.2,1.18c2.18,1.14,3.36,2.1,4.8,2.53a11.41,11.41,0,0,0,4.72.79c1.62-.22,4.28-1.14,4.89-2.58a12.44,12.44,0,0,1-4.19.48c-2.36-.13-2.66-1.62-5.59-1.35s-3.1-.26-3.1-.26a15.32,15.32,0,0,1,4.19-1.79c2.31-.57,6.55-.57,7.86.17a4.84,4.84,0,0,0-2.27-3.75c-2.36-1.75-6.07-1.4-7.86-.61s-5.33.74-6.64,0a22.69,22.69,0,0,0,3.93-1.53,16.29,16.29,0,0,1,7.12-1.22,10.23,10.23,0,0,1,6.9,3.93,10.09,10.09,0,0,1,1.18,4,8.29,8.29,0,0,1-1.09,3.75c-.48.91-1.7,3-5.94,3.1s-8.78-3.23-10.7-4.15C626.83,121.87,622.61,127.37,622.61,127.37Z"/></g></g></svg>