<?xml version="1.0"?>
<svg xmlns="http://www.w3.org/2000/svg" height="512px" viewBox="0 -38 481.4136 481" width="512px"><path d="m50.984375 270.148438h16v16h-16zm0 0" fill="#FFDA44"/><path d="m82.984375 270.148438h16v16h-16zm0 0" fill="#FFDA44"/><path d="m114.984375 270.148438h16v16h-16zm0 0" fill="#FFDA44"/><path d="m154.984375 270.148438h16v16h-16zm0 0" fill="#FFDA44"/><path d="m186.984375 270.148438h16v16h-16zm0 0" fill="#FFDA44"/><path d="m218.984375 270.148438h16v16h-16zm0 0" fill="#FFDA44"/><path d="m50.984375 318.148438h64v16h-64zm0 0" fill="#FFDA44"/><path d="m170.984375 318.148438h64v16h-64zm0 0" fill="#FFDA44"/><path d="m130.984375 150.148438h-64c-8.835937 0-16 7.164062-16 16v48c0 8.835937 7.164063 16 16 16h64c8.839844 0 16-7.164063 16-16v-48c0-8.835938-7.160156-16-16-16zm0 32h-32v-16h32zm-64-16h16v48h-16zm32 48v-16h32v16zm0 0" fill="#FFDA44"/><path d="m370.984375 150.148438c-8.660156.003906-17.085937 2.832031-24 8.054687-16.492187-12.429687-39.734375-10.261719-53.640625 5.003906-13.910156 15.269531-13.910156 38.613281 0 53.878907 13.90625 15.265624 37.148438 17.433593 53.640625 5.003906 13.917969 10.488281 33.019531 10.761718 47.230469.675781 14.207031-10.085937 20.253906-28.207031 14.945312-44.804687-5.308594-16.59375-20.75-27.847657-38.175781-27.8125zm-48 64c-10.296875.019531-19.457031-6.53125-22.769531-16.28125s-.035156-20.527344 8.144531-26.78125c8.179687-6.257813 19.4375-6.597657 27.980469-.851563-.988282 1.734375-1.839844 3.539063-2.554688 5.402344-.199218.503906-.351562 1.023437-.527344 1.542969-.539062 1.558593-.980468 3.148437-1.328124 4.757812-.128907.601562-.253907 1.195312-.359376 1.800781-.777343 4.230469-.777343 8.570313 0 12.800781.105469.609376.230469 1.199219.359376 1.800782.34375 1.625.792968 3.230468 1.335937 4.800781.175781.511719.320313 1.023437.519531 1.527344.71875 1.859375 1.570313 3.664062 2.554688 5.398437-3.945313 2.660156-8.597656 4.078125-13.355469 4.082032zm48 0c-7.113281-.003907-13.859375-3.160157-18.417969-8.625-4.558594-5.460938-6.460937-12.664063-5.1875-19.664063.535156-2.828125 1.566406-5.535156 3.046875-8 5.945313-9.976563 18.179688-14.261719 29.050781-10.179687 10.871094 4.078124 17.261719 15.359374 15.175782 26.78125-2.089844 11.421874-12.054688 19.714843-23.667969 19.6875zm0 0" fill="#FFDA44"/><path d="m282.984375 270.148438h16v32h-16zm0 0" fill="#FFDA44"/><path d="m314.984375 270.148438h16v32h-16zm0 0" fill="#FFDA44"/><path d="m346.984375 270.148438h16v32h-16zm0 0" fill="#FFDA44"/><path d="m378.984375 270.148438h16v32h-16zm0 0" fill="#FFDA44"/><path d="m480.785156 253.875-34.800781-196.929688-4.15625-23.695312c-1.824219-10.449219-7.734375-19.746094-16.421875-25.828125-8.691406-6.085937-19.449219-8.457031-29.890625-6.59375l-362.402344 63.917969c-10.457031 1.8125-19.765625 7.71875-25.863281 16.40625s-8.488281 19.445312-6.640625 29.898437l3.730469 21.152344c-.859375 3.246094-1.3125 6.585937-1.355469 9.945313v224c.027344 22.078124 17.921875 39.972656 40 40h368c22.082031-.027344 39.976563-17.921876 40-40v-66.707032c20.453125-4.894531 33.527344-24.902344 29.800781-45.597656zm-46.597656-144.246094c-.191406-.136718-.371094-.296875-.5625-.433594-1.953125-1.324218-4.023438-2.46875-6.183594-3.425781-.414062-.191406-.800781-.382812-1.246094-.550781-2.148437-.890625-4.371093-1.59375-6.640624-2.09375-.402344-.089844-.800782-.144531-1.207032-.226562-2.425781-.476563-4.890625-.726563-7.363281-.75h-175.542969l52.519532-9.257813 143.664062-25.320313 8.296875 46.960938c-.144531-.152344-.328125-.257812-.472656-.398438-1.617188-1.652343-3.378907-3.160156-5.261719-4.503906zm-413.808594-19.289062c3.65625-5.207032 9.246094-8.734375 15.519532-9.792969l362.414062-64c1.40625-.25 2.832031-.378906 4.257812-.375 11.597657.03125 21.503907 8.382813 23.496094 19.808594l2.777344 15.796875-285.601562 50.371094h-100.257813c-2.289063.007812-4.574219.214843-6.832031.613281-.742188.128906-1.4375.363281-2.167969.53125-1.460937.308593-2.902344.707031-4.316406 1.183593-.800781.292969-1.601563.671876-2.402344 1.023438-1.21875.503906-2.414063 1.074219-3.574219 1.703125-.839844.464844-1.601562.984375-2.402344 1.503906-1.03125.671875-2.039062 1.375-3.015624 2.152344-.382813.304687-.800782.535156-1.207032.863281l-.601562-3.429687c-1.144532-6.269531.265625-12.730469 3.914062-17.953125zm414.605469 275.808594c0 13.253906-10.742187 24-24 24h-368c-13.253906 0-24-10.746094-24-24v-224c.015625-2.480469.402344-4.941407 1.144531-7.304688 3.179688-9.945312 12.417969-16.695312 22.855469-16.695312h368c13.257813 0 24 10.742187 24 24zm26.050781-91.578126c-2.523437 3.621094-6.003906 6.472657-10.050781 8.234376v-105.601563l14.042969 79.40625c1.125 6.28125-.3125 12.75-3.992188 17.960937zm0 0" fill="#FFDA44"/></svg>
