<svg xmlns="http://www.w3.org/2000/svg" viewBox="0 0 1131.12 140.65"><defs><style>.cls-1{fill:#f2d949;}</style></defs><title>gringotts_vazado</title><g id="Layer_2" data-name="Layer 2"><g id="Layer_1-2" data-name="Layer 1"><path class="cls-1" d="M625.52,59.61c-3.06-3-10.19-6.84-15.66-7.51s-9-.47-10.25-1.46S562.21,0,562.21,0l1.46,13.62s-8.5-2.79-12.81-3a151.56,151.56,0,0,0-19.62.7c-5,.7-14.73,4-19.21,6.17a69.9,69.9,0,0,0-13.62,8.56,78.87,78.87,0,0,0-11.06,11.53,62.29,62.29,0,0,0-5.7,9.17,23,23,0,0,0,5-1.66,30.69,30.69,0,0,0,3.44-1.83c2.62-3.67,7.79-10.24,12.24-13.12s10.65-6.72,15.46-8,12.31-3.49,17-3.49,14.32-1.22,21.13.61,15.37,7,17.81,9.69,3.75,3.84,5.24,7.42,4.89,13.71,5.85,14.32,7.25,1,14.93,1.83,11.44,1.4,15.37,2.88,10.39,5.24,10.83,7.07c0,0-19.65,2.62-24.8,4.1s-7.6,2.36-7.86,3.49,1.48,5.24,2.71,6.9c0,0-11.35,2.53-11.35,3.23s2.1,2.79,7.68,3.14,5.85-.09,5.85-.09.87,2.27-4.63,3.84S580,86,580,86s-6.9-3.58-12.31-4-10,.09-13.45,3.93-2.79,7.51-2.53,10.39a15.7,15.7,0,0,0,3.84,9.08c2.62,3.06,3.49,3.23,7,3.93,0,0,4.34.41,6.55-.23l-4.25-3.43a9.34,9.34,0,0,1-2.33-6.17,8.23,8.23,0,0,1,2.82-5.27,8.41,8.41,0,0,1,5.76-1.66c2.36.17,5.33.7,7.33,3.06s2,5.06,2.18,8A18,18,0,0,1,577.81,114c-2.1,3-4.45,6.46-9.17,9.17s-8.3,5.24-15,5.94-13.88-.09-16.42-1-9.52-3.58-12.05-5.33-2.44-2.1-2.44-2.1a30,30,0,0,0,6.55-3.73c4.28-3,7.33-5.7,8.62-7.57l1.6-2.59s-14.41-1.66-18.25-2.79S505.6,99,502,96.34a57.45,57.45,0,0,1-10.39-10.22c-2.88-3.75-5.94-12-6.72-16.42s-.18-10.66,0-12.23c0-.14,0-3.51,0-3.51-1.42-.2-3.58-.54-5.87-.93a36.84,36.84,0,0,0-1.3,4.42,101.19,101.19,0,0,0-2.5,18.69,62.69,62.69,0,0,0,2.79,20c1.46,4.13,3.61,10.42,7.22,16s7,10.3,10.25,13.16,9,8,15.25,10.3,12.75,4.89,21.71,5,13.85.41,19.27-.7,13.62-3.67,19.62-8.73,9.08-11.88,9.55-12.57.87-1,1.63-.76.93,3.26.93,5.41.12,4.89-2.79,8.09a33.07,33.07,0,0,1-7.86,5.76l33.36-3.84s-6.46-1.92-8-4.37a37.71,37.71,0,0,1-6.29-19c-.7-10.48-1.22-13.1-1.22-13.1a28,28,0,0,0,7.68-5.41c3.67-3.67,4.37-11,4.37-11s-12.4,2.1-12.57.35,8.59-.76,8.79-1.37-.06-1.48-.9-2.56-3.17-3.9-2.94-5.09,11.24-3.43,14.15-4,16.82-3.41,18.63-3.06C627.76,64.56,628.57,62.61,625.52,59.61Z"/><path class="cls-1" d="M529.84,53.5a24.48,24.48,0,0,0-12.75-7c-7.92-1.51-21-1.16-24.8-.76-4.83.52-17.65,1.07-25.65,5.07,0,0,2.36.75,13.31,2.43s17.17,2.56,19.62,4.37,6.64,5.65,9,13.68,8,13.39,15.08,14.55,13.1,1.51,16.59-2.44c0,0,1.34,7-8.21,8.91s-14.64-.41-17-2.39c-9.84-8.27-6-16.51-14.73-26.55-4.54-5.24-15.14-5.57-20.61-6.75-5.94-1.28-15.43-4.66-17.7-5.94a125.45,125.45,0,0,1,15-5.41c4.31-1.11,16.87-2.84,29.69-2.1,5,.29,14.2,1.86,18.1,4.25A12.2,12.2,0,0,1,529.84,53.5Z"/><path class="cls-1" d="M554.76,61.2a5.7,5.7,0,0,1-.17-3A5.91,5.91,0,0,1,559,54.56a8.15,8.15,0,0,1,5.2,1.18c2.18,1.14,3.36,2.1,4.8,2.53a11.41,11.41,0,0,0,4.72.79c1.62-.22,4.28-1.14,4.89-2.58a12.44,12.44,0,0,1-4.19.48c-2.36-.13-2.66-1.62-5.59-1.35s-3.1-.26-3.1-.26a15.32,15.32,0,0,1,4.19-1.79c2.31-.57,6.55-.57,7.86.17A4.84,4.84,0,0,0,575.45,50c-2.36-1.75-6.07-1.4-7.86-.61s-5.33.74-6.64,0a22.69,22.69,0,0,0,3.93-1.53A16.29,16.29,0,0,1,572,46.66a10.23,10.23,0,0,1,6.9,3.93,10.09,10.09,0,0,1,1.18,4A8.29,8.29,0,0,1,579,58.36c-.48.91-1.7,3-5.94,3.1s-8.78-3.23-10.7-4.15C559,55.7,554.76,61.2,554.76,61.2Z"/><path class="cls-1" d="M695.11,13.91a73.85,73.85,0,0,1,13.36,1.3,64.78,64.78,0,0,1,13.89,4.25,61.88,61.88,0,0,1,13.16,7.78A51,51,0,0,1,746.58,39a59.14,59.14,0,0,1,7.6,16.28A73.47,73.47,0,0,1,757,76.69a75.25,75.25,0,0,1-2.8,21.51,57.58,57.58,0,0,1-7.56,16.28,49.84,49.84,0,0,1-11.06,11.66,60.27,60.27,0,0,1-13.24,7.61,67,67,0,0,1-14.18,4.13,80.88,80.88,0,0,1-13.81,1.26,75.68,75.68,0,0,1-13.28-1.26,66.74,66.74,0,0,1-13.94-4.13,60.61,60.61,0,0,1-13.2-7.61,50.56,50.56,0,0,1-11.1-11.66,57.69,57.69,0,0,1-7.65-16.28,74.23,74.23,0,0,1-2.84-21.51,74.19,74.19,0,0,1,3-22,58.93,58.93,0,0,1,7.85-16.48,48.64,48.64,0,0,1,11.35-11.62,64.62,64.62,0,0,1,13.4-7.49,65.54,65.54,0,0,1,14-4A80.39,80.39,0,0,1,695.11,13.91Zm-.41,5.83A35.28,35.28,0,0,0,681,22.26,34.79,34.79,0,0,0,670.45,29a40.3,40.3,0,0,0-7.65,9.89,61.74,61.74,0,0,0-5.06,12,79.17,79.17,0,0,0-2.8,13,95.91,95.91,0,0,0,0,25.37A78.33,78.33,0,0,0,657.62,102a62.9,62.9,0,0,0,5,12,40,40,0,0,0,7.61,10,34.88,34.88,0,0,0,10.57,6.85,39.34,39.34,0,0,0,27.67.08A34.19,34.19,0,0,0,719,124.11a39.56,39.56,0,0,0,7.61-9.89,63.86,63.86,0,0,0,5-11.92,78.45,78.45,0,0,0,2.79-12.85,97.68,97.68,0,0,0,.86-12.73,100.15,100.15,0,0,0-.86-12.89,79.27,79.27,0,0,0-2.79-13,62,62,0,0,0-5.06-12A40.4,40.4,0,0,0,718.87,29a34.1,34.1,0,0,0-24.17-9.28Z"/><path class="cls-1" d="M780.95,16.67q9,.32,22.36.49t31.49.16q18.09,0,31.53-.16t22.49-.49q.49,3.48,1.23,6.68a39.83,39.83,0,0,0,2.47,7.09L895,35.95l6,11.5a4.84,4.84,0,0,1-2.88,2.19,54.89,54.89,0,0,0-6.82-9.72A42.36,42.36,0,0,0,881,31.57a62.12,62.12,0,0,0-15.13-6.24,108.86,108.86,0,0,0-21.5-3.4q-.41,10.13-.62,22.88t-.21,28.39q0,15.72.21,28.51t.62,22.92a4.52,4.52,0,0,0,1.56,3.28,11.69,11.69,0,0,0,4.07,2.23,34.76,34.76,0,0,0,6,1.42q3.41.53,7.36.85a10,10,0,0,1,.33,2.19,4.73,4.73,0,0,1-.33,1.62q-13.81-.49-28.61-.49t-28.61.49a4.71,4.71,0,0,1-.33-1.62,10,10,0,0,1,.33-2.19l3.95-.4q2.14-.24,4.77-.69a28.62,28.62,0,0,0,4.89-1.26,13.7,13.7,0,0,0,3.82-2,3.67,3.67,0,0,0,1.56-3v-.41q.41-14.82.66-27.62t.25-23.81q0-10.94-.25-23.69t-.66-27.58a95.8,95.8,0,0,0-20.6,3.12,66.9,66.9,0,0,0-15.17,6.16,43.28,43.28,0,0,0-10.69,8.42,49.73,49.73,0,0,0-7.07,10,4.83,4.83,0,0,1-2.88-2.19l3.7-6.89,1.73-3.48q1.07-2.19,2.14-4.46t2-4.74a41.22,41.22,0,0,0,1.6-5.27A47.52,47.52,0,0,0,780.95,16.67Z"/><path class="cls-1" d="M914.8,16.67q9,.32,22.36.49t31.49.16q18.09,0,31.53-.16t22.49-.49q.49,3.48,1.23,6.68a39.83,39.83,0,0,0,2.47,7.09l2.47,5.51,6,11.5a4.84,4.84,0,0,1-2.88,2.19,54.89,54.89,0,0,0-6.82-9.72,42.36,42.36,0,0,0-10.24-8.34,62.12,62.12,0,0,0-15.13-6.24,108.86,108.86,0,0,0-21.5-3.4q-.41,10.13-.62,22.88t-.21,28.39q0,15.72.21,28.51t.62,22.92a4.52,4.52,0,0,0,1.56,3.28,11.69,11.69,0,0,0,4.07,2.23,34.76,34.76,0,0,0,6,1.42q3.41.53,7.36.85a10,10,0,0,1,.33,2.19,4.73,4.73,0,0,1-.33,1.62q-13.81-.49-28.61-.49t-28.61.49a4.71,4.71,0,0,1-.33-1.62,10,10,0,0,1,.33-2.19L944,132q2.14-.24,4.77-.69a28.62,28.62,0,0,0,4.89-1.26,13.7,13.7,0,0,0,3.82-2,3.67,3.67,0,0,0,1.56-3v-.41q.41-14.82.66-27.62t.25-23.81q0-10.94-.25-23.69T959,21.93a95.8,95.8,0,0,0-20.6,3.12,66.9,66.9,0,0,0-15.17,6.16,43.28,43.28,0,0,0-10.69,8.42,49.73,49.73,0,0,0-7.07,10,4.83,4.83,0,0,1-2.88-2.19l3.7-6.89,1.73-3.48q1.07-2.19,2.14-4.46t2-4.74a41.22,41.22,0,0,0,1.6-5.27A47.52,47.52,0,0,0,914.8,16.67Z"/><path class="cls-1" d="M1121.17,50.93Q1118,36.15,1109.7,28a27.62,27.62,0,0,0-20-8.16q-11.43,0-17.72,5.34t-6.29,14.23a30.92,30.92,0,0,0,.9,8.17,15.45,15.45,0,0,0,3.7,6.27,23.67,23.67,0,0,0,8.14,5.34,89.91,89.91,0,0,0,14,4.41q4.69,1.14,8.18,2.11a74.68,74.68,0,0,1,7.73,2.67,45.7,45.7,0,0,1,7.32,3.65,41.74,41.74,0,0,1,6.17,4.82,25.79,25.79,0,0,1,5,6.36,34.1,34.1,0,0,1,3.12,8.22,42.31,42.31,0,0,1,1.19,10.33,33.38,33.38,0,0,1-2.79,13.73A32.73,32.73,0,0,1,1121,126a43.73,43.73,0,0,1-10.44,7.29,51.89,51.89,0,0,1-12,4.37,54.63,54.63,0,0,1-12.09,1.38q-18.25,0-38.89-9.32Q1048,121,1048,119a157.62,157.62,0,0,0-2.22-26.33,3.39,3.39,0,0,1,1.81-.57,3.8,3.8,0,0,1,2.06.57,65.12,65.12,0,0,0,5.71,18.47,41.87,41.87,0,0,0,9.17,12.68,37.89,37.89,0,0,0,10.73,7,29,29,0,0,0,11.22,2.31q12.91,0,19.86-6.6t6.95-17.46q0-10.94-5.14-16.48t-19.61-9q-18.09-4.45-28.24-13.16t-10.15-23a34.44,34.44,0,0,1,2.51-13.49,26.49,26.49,0,0,1,6.5-9.56,35.26,35.26,0,0,1,9.33-6A45.48,45.48,0,0,1,1079,14.93a60.59,60.59,0,0,1,10.65-.93q16.28,0,33.88,7.45a97,97,0,0,0-.49,10q0,12.15,2,19.52a5.28,5.28,0,0,1-1.81.4A6.83,6.83,0,0,1,1121.17,50.93Z"/><path class="cls-1" d="M110.5,55.06A112.21,112.21,0,0,0,105.32,45a60.62,60.62,0,0,0-6.66-9,41.4,41.4,0,0,0-8.8-7.7A43.42,43.42,0,0,0,78.35,23.3a54.8,54.8,0,0,0-15-1.94,36,36,0,0,0-16.11,3.56,34.72,34.72,0,0,0-11.88,9.31A54.41,54.41,0,0,0,27.5,47.55,70.15,70.15,0,0,0,23,62.76a91.24,91.24,0,0,0-1.32,15.5,85.54,85.54,0,0,0,1.4,15.42,70,70,0,0,0,4.65,15.18,52.79,52.79,0,0,0,8,13.19,35.93,35.93,0,0,0,12,9.19A36.6,36.6,0,0,0,64,134.76q18.09,0,25.16-7.94V93.94a4.11,4.11,0,0,0-1.4-3,10,10,0,0,0-3.21-2.07,28.28,28.28,0,0,0-4.81-1.34q-3-.61-4.89-.85t-4.77-.49a8.7,8.7,0,0,1-.33-1.94,8.71,8.71,0,0,1,.33-1.86Q88.63,83,98.66,83q10.19,0,28.61-.65a15,15,0,0,1,.41,1.86,13,13,0,0,1-.41,1.94q-2.88.24-4.77.49t-4.89.85a26.92,26.92,0,0,0-4.77,1.34,10.13,10.13,0,0,0-3.17,2.07,4.1,4.1,0,0,0-1.4,3v12q0,15.39,3.7,25.19a186.26,186.26,0,0,1-24.09,7.21A114.2,114.2,0,0,1,64,140.6a81.2,81.2,0,0,1-16-1.62A67.23,67.23,0,0,1,31,132.9,59.63,59.63,0,0,1,15.5,121.72q-6.7-6.72-11.1-18A69.66,69.66,0,0,1,0,78.22,76.38,76.38,0,0,1,2.26,59.15,56.91,56.91,0,0,1,8.3,44a54.44,54.44,0,0,1,9-11.34A52.86,52.86,0,0,1,28.2,24.52a68.38,68.38,0,0,1,12-5.22,73.32,73.32,0,0,1,12-2.92,75.29,75.29,0,0,1,11.18-.85,133.4,133.4,0,0,1,17.55,1.11q8.34,1.11,16.65,2.71t13.16,2.17a33.52,33.52,0,0,0-1.23,10.29,59.17,59.17,0,0,0,4,21.47Q113,54.73,110.5,55.06Z"/><path class="cls-1" d="M138.29,18.2q17.76.65,28.61.65,4.11,0,13.24-.32t14.06-.32q18.25,0,28.74,9.07t10.48,23.57a33.57,33.57,0,0,1-7,20.86,38.19,38.19,0,0,1-19.07,13.16,184.63,184.63,0,0,0,15.13,22q9.29,12.23,17.72,19.2A32.81,32.81,0,0,0,258.33,134a8.87,8.87,0,0,1,.33,2,5.61,5.61,0,0,1-.33,1.78q-4.93-.24-10.52-.32t-12.46-.08q-6.87,0-10.56-.08-22.12-25.35-35.52-49.9a60.34,60.34,0,0,1-13.81-1.86q0,15.72.9,40.66a4.79,4.79,0,0,0,1.89,3.6,12.74,12.74,0,0,0,5.22,2.31q3.41.81,5.76,1.17t6.13.69a13.79,13.79,0,0,1,.33,2.19,5.28,5.28,0,0,1-.33,1.62q-14-.49-28.61-.49-14.8,0-28.61.49a5.24,5.24,0,0,1-.33-1.62,5.94,5.94,0,0,1,.33-2.19l3.95-.4q1.48-.16,4.07-.57a27.38,27.38,0,0,0,4.19-.93,29.54,29.54,0,0,0,3.33-1.34,6.79,6.79,0,0,0,2.59-1.94,4.16,4.16,0,0,0,.86-2.59q1-25.35,1-51.11,0-26.24-.82-45.28a4.8,4.8,0,0,0-1.89-3.6,12.8,12.8,0,0,0-5.22-2.31q-3.41-.81-5.76-1.17T138.29,22a11,11,0,0,1-.33-2A8.79,8.79,0,0,1,138.29,18.2Zm38.23,5.59h-.16q-.91,29.89-.9,55.57a37.65,37.65,0,0,0,11.67,1.86,24.83,24.83,0,0,0,9.74-1.82A20.41,20.41,0,0,0,204,74.58a26.19,26.19,0,0,0,4.65-7,35.58,35.58,0,0,0,2.63-8.18,45.71,45.71,0,0,0,.78-8.51q0-12.07-6.7-19.72t-19-7.65Q180.22,23.47,176.52,23.79Z"/><path class="cls-1" d="M265.9,18.2q18.42.65,28.61.65t28.61-.65a8.89,8.89,0,0,1,.33,1.78,7.39,7.39,0,0,1-.33,2q-3.78.32-6.13.69t-5.76,1.17A12.78,12.78,0,0,0,306,26.18a4.79,4.79,0,0,0-1.89,3.6q-1.07,27.54-1.07,51.27,0,17.34.9,45.12a4.79,4.79,0,0,0,1.89,3.6,12.74,12.74,0,0,0,5.22,2.31q3.41.81,5.76,1.17T323,134a6.83,6.83,0,0,1,.33,2.19,5.28,5.28,0,0,1-.33,1.62q-14-.49-28.61-.49-14.8,0-28.61.49a5.24,5.24,0,0,1-.33-1.62,5.94,5.94,0,0,1,.33-2.19l3.95-.4q1.48-.16,4.07-.57a27.38,27.38,0,0,0,4.19-.93,29.54,29.54,0,0,0,3.33-1.34,6.79,6.79,0,0,0,2.59-1.94,4.16,4.16,0,0,0,.86-2.59q1-25.35,1-51.11,0-26.24-.82-45.28a4.8,4.8,0,0,0-1.89-3.6,12.8,12.8,0,0,0-5.22-2.31q-3.41-.81-5.76-1.17T265.9,22a11,11,0,0,1-.33-2A5.59,5.59,0,0,1,265.9,18.2Z"/><path class="cls-1" d="M335.78,18.2q13.48.65,34,.65,58.13,71.77,66.84,81.08h.66q.33-15.55.33-25,0-18.71-.82-44-.17-7.29-18.25-8.91a18.07,18.07,0,0,1-.33-2.19,5.25,5.25,0,0,1,.33-1.62q13.24.49,23.43.49,6.58,0,22-.49a5.29,5.29,0,0,1,.33,1.62A6.37,6.37,0,0,1,464,22q-18,1.62-18.17,8.91-1,25.35-1,50,0,37.67.82,56.7l-1.48.16L362.5,38.7h-.82q-.49,21-.49,42.36,0,18.79.82,43.9.16,7.37,18.17,9a8.18,8.18,0,0,1,.41,2.19,3.56,3.56,0,0,1-.41,1.62q-13.07-.49-23.35-.49-6.58,0-22,.49a3.54,3.54,0,0,1-.41-1.62,4.87,4.87,0,0,1,.41-2.19q18.17-1.7,18.17-9,1-25.27,1-49.9,0-26.73-.66-46.41-6.91-5.91-17.51-6.64a4.48,4.48,0,0,1-.49-1.86A3.42,3.42,0,0,1,335.78,18.2Z"/></g></g></svg>